<svg xmlns="http://www.w3.org/2000/svg" fill="#FF0440" width="100pt" height="100pt" viewBox="0 0 100 100"><g><path d="m23.281 59.859 5.1992-0.17578-10.531-16.918-9.3867 17.57 5.6797-0.1875h-0.003907c2.2461 7.7656 6.9414 14.594 13.387 19.469 6.4492 4.8789 14.301 7.5352 22.383 7.5781v-8.6914c-5.8203-0.03125-11.496-1.8281-16.27-5.1602-4.7734-3.3281-8.4219-8.0312-10.457-13.484z"></path><path d="m76.547 39.621-5.1992 0.27344 10.836 16.73 9.082-17.758-5.6914 0.28906h-0.003907c-2.7266-8.9453-8.7266-16.535-16.797-21.258-8.0742-4.7188-17.629-6.2305-26.762-4.2227l1.8672 8.4883c6.6328-1.4492 13.562-0.49219 19.551 2.707 5.9883 3.2031 10.637 8.4297 13.117 14.75z"></path><path d="m15.184 35.957 7.1836-7.1875 7.1992 7.1875 6.1445-6.1445-7.1875-7.1836 7.1875-7.1992-6.1445-6.1445-7.1992 7.1875-7.1836-7.1875-6.1445 6.1445 7.1875 7.1992-7.1875 7.1836z"></path><path d="m85.527 62.004-16.934 16.934-6.9375-6.9414-6.1445 6.1445 6.9375 6.9375 6.1445 6.1562 23.09-23.09z"></path></g></svg>